<svg xmlns="http://www.w3.org/2000/svg" width="208.825" height="39.363" viewBox="0 0 208.825 39.363"><g transform="translate(0 -0.13)"><g transform="translate(0 0.13)"><path d="M2.061.338,21.7,18.968a2.789,2.789,0,0,1,.9,2.078V38.127a1.239,1.239,0,0,1-.749,1.134,1.207,1.207,0,0,1-1.312-.227L.9,20.4A2.789,2.789,0,0,1,0,18.326V1.245A1.2,1.2,0,0,1,.749.111,1.207,1.207,0,0,1,2.061.338M50.4,19.611l12.665-8.692a1.143,1.143,0,0,0,.524-.982,1.162,1.162,0,0,0-.524-1.021L50.4.224A1.2,1.2,0,0,0,49.124.149a1.186,1.186,0,0,0-.637,1.1V18.59a1.186,1.186,0,0,0,.637,1.1,1.2,1.2,0,0,0,1.274-.075M26.492.338,46.127,18.968a2.791,2.791,0,0,1,.9,2.078V38.127a1.182,1.182,0,0,1-.749,1.134,1.206,1.206,0,0,1-1.311-.227L25.33,20.4a2.9,2.9,0,0,1-.862-2.078V1.245A1.169,1.169,0,0,1,25.18.111a1.194,1.194,0,0,1,1.311.227" transform="translate(0 0)" fill="#0055fb" fill-rule="evenodd"/><path d="M104.405,3.577V14.121a7.775,7.775,0,0,1,6.07-2.532c5.883,0,9.031,4.8,9.031,9.9s-3.148,9.863-9.031,9.863a7.828,7.828,0,0,1-6.707-3.25h0v2.721H99.009V3.577Zm22.519,0V14.121a7.929,7.929,0,0,1,6.109-2.532c5.882,0,9.029,4.8,9.029,9.9s-3.148,9.863-9.029,9.863a7.776,7.776,0,0,1-6.707-3.25h0v2.721h-4.759V3.577ZM160.612,5.2v6.915h5.845V16.69h-5.845v7.331c0,1.927.936,2.8,2.96,2.8h2.885V30.71a15.033,15.033,0,0,1-4.5.642c-3.6,0-6.67-1.662-6.67-6.311h0V16.69h-3.821l-.038-4.573h3.86V8.452ZM95.786,12.118V30.824H90.428V12.118Zm53.771,0V30.824h-5.4V12.118Zm34.361,0v3.514l-8.694,10.656h9.331v4.535H168.329V27.309l8.694-10.694h-8.207v-4.5Zm-120.582,0,3.372,12.811,3.71-12.811h5.1l3.672,12.811,3.372-12.811h5.7L82.3,30.824H76.639L72.967,18.655,69.295,30.824H63.6L57.641,12.118Zm45.827,4.044c-6.67,0-6.67,10.657,0,10.657,3.072,0,4.871-2.419,4.871-5.329C114.035,18.542,112.236,16.161,109.164,16.161Zm22.558,0c-6.67,0-6.67,10.657,0,10.657,3.035,0,4.87-2.419,4.87-5.329C136.592,18.542,134.757,16.161,131.722,16.161ZM93.088,2.9a2.888,2.888,0,0,1,3.148,3.061,3.149,3.149,0,0,1-6.295,0A2.906,2.906,0,0,1,93.088,2.9Zm53.77,0a2.888,2.888,0,0,1,3.148,3.061,3.148,3.148,0,0,1-6.294,0A2.887,2.887,0,0,1,146.859,2.9Z" transform="translate(24.27 1.22)" fill-rule="evenodd"/></g></g></svg>