<svg xmlns="http://www.w3.org/2000/svg" width="7" height="11.492" viewBox="0 0 7 11.492"><g transform="translate(-427.122 -3487.911)"><path d="M8.343,9.815,12.31,5.844a.747.747,0,0,1,1.059,0,.756.756,0,0,1,0,1.062l-4.5,4.5a.749.749,0,0,1-1.034.022L3.312,6.909A.75.75,0,1,1,4.372,5.847Z" transform="translate(421.999 3501.997) rotate(-90)" fill="#0073cf"/><path d="M8.346,12.123A1.247,1.247,0,0,1,7.5,11.8l-.016-.015L2.959,7.263A1.25,1.25,0,1,1,4.727,5.495L8.342,9.107,11.957,5.49a1.247,1.247,0,0,1,1.768,0,1.259,1.259,0,0,1,0,1.766l-4.5,4.5A1.238,1.238,0,0,1,8.346,12.123Zm-.163-1.06a.249.249,0,0,0,.163.06.245.245,0,0,0,.174-.072l4.5-4.5a.256.256,0,0,0,0-.357.242.242,0,0,0-.173-.072.249.249,0,0,0-.177.074L8.343,10.522,4.018,6.2a.244.244,0,0,0-.175-.074.252.252,0,0,0-.177.429Z" transform="translate(421.999 3501.997) rotate(-90)" fill="#0073cf"/></g></svg>