<svg xmlns="http://www.w3.org/2000/svg" width="55" height="55" viewBox="0 0 55 55"><g transform="translate(3616 13045.5)"><path d="M470.21,679.3l-2.06,2.06a3.593,3.593,0,0,0-1.075,2.425,3.035,3.035,0,0,0,.858,2.261,3.346,3.346,0,0,0,2.164.813,3.161,3.161,0,0,0,2.239-.918,3.351,3.351,0,0,0-.194-4.716L470.21,679.3Z" transform="translate(-4058.031 -13688.396)" fill="#0073cf"/><path d="M431.924,491.084,425.7,484.86l6.06-6.06,6.216,6.216Z" transform="translate(-4019.745 -13502.859)" fill="#0073cf"/><path d="M290.128,518a3.056,3.056,0,0,0-2.179.881,3.274,3.274,0,0,0-.008,4.5l.008.007a3.056,3.056,0,0,0,2.179.881,3.657,3.657,0,0,0,2.537-1.075l2.06-2.06-2.06-2.06A3.657,3.657,0,0,0,290.128,518Z" transform="translate(-3891.442 -13539.135)" fill="#0073cf"/><path d="M471.516,345.5a3.351,3.351,0,0,0,.194-4.716,2.956,2.956,0,0,0-2.1-.881,3.3,3.3,0,0,0-1.933.657,4.809,4.809,0,0,0-.41.358,3.349,3.349,0,0,0,.2,4.709l1.963,1.963Z" transform="translate(-4057.404 -13374.325)" fill="#0073cf"/><path d="M632.652,520.372l.007-.015a3.088,3.088,0,0,0-1.933-.657,3.657,3.657,0,0,0-2.537,1.075l-2.09,2.09,2.022,2.022a3.612,3.612,0,0,0,2.537,1.075,3.014,3.014,0,0,0,3.06-3.164A3.565,3.565,0,0,0,632.652,520.372Z" transform="translate(-4205.189 -13540.708)" fill="#0073cf"/><path d="M159,191.5A27.5,27.5,0,1,0,186.5,219,27.5,27.5,0,0,0,159,191.5Zm17.5,31.216a4.936,4.936,0,0,1-3.515,1.433,5.531,5.531,0,0,1-3.873-1.634l-2.022-2.022-6.075,6.067,1.933,1.933a5.244,5.244,0,0,1,.194,7.4,5.016,5.016,0,0,1-3.575,1.47,5.215,5.215,0,0,1-3.44-1.306l-.045-.045a4.924,4.924,0,0,1-1.433-3.687,5.479,5.479,0,0,1,1.627-3.709l2.06-2.06-6.216-6.209-2.06,2.06a5.455,5.455,0,0,1-3.873,1.634,4.923,4.923,0,0,1-3.515-1.433l-.052-.052a5.2,5.2,0,0,1-1.4-3.612,5.007,5.007,0,0,1,1.455-3.515,4.936,4.936,0,0,1,3.515-1.433,5.531,5.531,0,0,1,3.873,1.634l2.06,2.06,6.06-6.06-1.963-1.963a5.244,5.244,0,0,1-.194-7.4l.015-.015a6.787,6.787,0,0,1,.612-.522,5.141,5.141,0,0,1,3.052-1.022,4.84,4.84,0,0,1,3.44,1.433,5.244,5.244,0,0,1-.194,7.4l-2.09,2.09,6.216,6.216,2.09-2.09a5.455,5.455,0,0,1,3.873-1.634,4.923,4.923,0,0,1,3.515,1.433l-.03.03a5.477,5.477,0,0,1,1.4,3.463A4.878,4.878,0,0,1,176.5,222.716Z" transform="translate(-3747.5 -13237)" fill="#0073cf" opacity="0.1"/></g></svg>