<svg version="1.2" baseProfile="tiny-ps" xmlns="http://www.w3.org/2000/svg" viewBox="0 0 1000 1000" width="31" height="31">
	<title>6a04d76dc47c472c4eee85dd10e1af34-svg</title>
	<style>
		tspan { white-space:pre }
		.shp0 { fill: #0073cf } 
	</style>
	<g id="Layer">
		<g id="Layer">
			<path id="Layer" fill-rule="evenodd" class="shp0" d="M559.37 13.54C568.38 14.69 585.81 17.76 598.46 20.25C801.94 62.02 957.52 228.34 985.5 434.12C1006.58 588.94 952.73 743.95 839.88 852.78C764 925.98 671.65 970.62 564.16 986.14C532.36 990.74 467.21 990.74 435.79 986.14C291.32 965.06 170.8 889.57 91.48 770.39C21.55 665.19 -4.9 535.86 18.1 411.7C36.68 310.73 85.92 219.33 160.08 147.67C244.57 66.24 345.55 21.6 469.33 10.87C483.7 9.52 541.94 11.44 559.37 13.54ZM390.18 85.4C292.65 111.27 206.43 171.82 147.03 255.93C136.69 270.68 112.93 311.68 112.93 314.75C112.93 315.71 151.45 316.09 198.58 315.9L284.04 315.33L285.96 309.58C309.91 234.28 354.74 156.3 409.54 94.41C426.02 75.82 426.41 75.82 390.18 85.4ZM579.88 78.71C577.39 78.71 580.46 83.31 590.42 94.42C645.21 156.31 690.05 234.29 714 309.59L715.92 315.34L801.37 315.91C848.51 316.1 887.02 315.72 887.02 314.95C887.02 314.37 883 306.32 878.21 297.32C820.73 190.79 721.28 113.76 602.49 83.68C591.95 80.99 581.8 78.69 579.88 78.71ZM499.97 90.19C497.1 90.19 448.43 141.93 435.02 159.17C413.56 186.57 392.1 220.29 377.35 249.22C365.47 272.78 353.02 300.95 349.57 311.87L348.42 316.28L651.54 316.28L650.39 311.87C646.94 300.95 634.49 272.79 622.61 249.22C597.7 200.36 566.28 156.68 526.04 115.48C512.44 101.69 500.75 90.19 499.97 90.19ZM267.56 377.6L88.41 377.6L84.39 392.35C74.43 429.71 71.94 450.59 71.94 500.22C71.94 549.85 74.43 570.73 84.4 607.9L88.42 622.85L267.56 622.85L264.88 609.05C252.43 543.33 252.43 457.11 264.88 391.39L267.56 377.6ZM670.12 377.6L329.84 377.6L327.54 387.56C319.68 424.54 316.04 459.98 316.04 500.22C316.04 540.46 319.68 575.9 327.54 612.69L329.84 622.85L670.12 622.85L672.04 613.65C687.94 539.88 687.94 460.56 672.04 386.6L670.12 377.6ZM911.36 377.59L732.4 377.59L735.08 391.39C741.78 427.03 743.89 453.85 743.89 500.22C743.89 546.59 741.79 573.41 735.08 609.05L732.4 622.85L911.36 622.85L914.42 611.74C933.96 541.23 933.96 459.22 914.42 388.52L911.36 377.59ZM284.05 685.11L198.59 684.54C151.45 684.35 112.94 684.73 112.94 685.5C112.94 686.08 116.96 694.13 121.75 703.13C170.04 792.6 251.08 863.88 346.12 900.67C365.08 907.95 413.75 921.75 420.65 921.75C422.38 921.75 417.59 915.05 409.54 905.85C354.75 844.15 309.91 766.17 285.96 690.87L284.05 685.11ZM651.54 684.16L348.42 684.16L349.57 688.38C357.04 712.72 385.4 769.05 405.71 800.09C428.13 834.19 446.14 856.61 474.5 885.35L499.98 911.22L525.46 885.35C553.82 856.61 571.83 834.19 594.25 800.09C614.56 769.04 642.92 712.71 650.39 688.38L651.54 684.16ZM715.93 685.52C715.54 686.48 713.63 691.84 711.71 697.59C689.1 768.1 643.69 845.89 590.42 905.86C582.38 915.05 577.59 921.76 579.31 921.76C586.2 921.76 634.87 907.96 653.84 900.68C748.88 863.9 829.93 792.62 878.21 703.14C883 694.13 887.02 686.08 887.02 685.51C887.02 683.59 716.88 683.78 715.93 685.52Z" />
		</g>
	</g>
</svg>