<svg xmlns="http://www.w3.org/2000/svg" width="55" height="55" viewBox="0 0 55 55"><g transform="translate(-855 -1312)"><path d="M27.5,0h0A27.5,27.5,0,0,1,55,27.5v0A27.5,27.5,0,0,1,27.5,55H9.821A9.821,9.821,0,0,1,0,45.179V27.5A27.5,27.5,0,0,1,27.5,0Z" transform="translate(855 1312)" fill="#0073cf" opacity="0.1"/><path d="M113.23,25.9l.893-.893a.853.853,0,0,0,0-1.207l-.928-.928a.853.853,0,0,0-1.207,0l-.893.893-2.511-2.511a.854.854,0,0,0-1.207,0l-1.065,1.065a.853.853,0,0,0,0,1.2l-2.01-2.01a.854.854,0,0,0-1.207,0l-1.065,1.064a.853.853,0,0,0,0,1.207l4.523,4.523L98.3,36.565l-4.523-4.523a.854.854,0,0,0-1.207,0L91.5,33.106a.853.853,0,0,0,0,1.207l2.01,2.01a.853.853,0,0,0-1.2,0l-1.065,1.065a.853.853,0,0,0,0,1.207l2.511,2.512L92.86,42a.853.853,0,0,0,0,1.207l.928.928a.853.853,0,0,0,1.207,0l.893-.893L98.4,45.754a.853.853,0,0,0,1.207,0l1.065-1.065a.853.853,0,0,0,0-1.2l2.01,2.01a.853.853,0,0,0,1.207,0l1.065-1.065a.854.854,0,0,0,0-1.207L100.431,38.7l8.256-8.256,4.523,4.523a.853.853,0,0,0,1.207,0l1.065-1.065a.854.854,0,0,0,0-1.207l-2.01-2.01a.853.853,0,0,0,1.2,0l1.065-1.065a.854.854,0,0,0,0-1.207Z" transform="translate(779.009 1305.996)" fill="#0073cf"/></g></svg>