<svg xmlns="http://www.w3.org/2000/svg" width="55" height="55" viewBox="0 0 55 55"><g transform="translate(-855 -1026)"><path d="M27.5,0h0A27.5,27.5,0,0,1,55,27.5v0A27.5,27.5,0,0,1,27.5,55H9.821A9.821,9.821,0,0,1,0,45.179V27.5A27.5,27.5,0,0,1,27.5,0Z" transform="translate(855 1026)" fill="#0073cf" opacity="0.1"/><g transform="translate(872 1043)"><path d="M137.609,68.469l2.767,1.384-.747,1.493a.459.459,0,0,0-.235-.313l-2.454-1.227Z" transform="translate(-120.04 -68.318)" fill="#0073cf"/><path d="M157.607,125.042l3.519-7.033,2.3-4.59,2.454,1.227a.443.443,0,0,0,.2.047.422.422,0,0,0,.193-.047L160.4,126.384l-2.788,1.394Z" transform="translate(-146.919 -111.122)" fill="#0073cf"/><path d="M296.308,65.293v6.579l-3.519,7.033a.444.444,0,0,0-.047.2v3.122h-6.683a.444.444,0,1,0,0,.888h7.2c.01,0,.021-.005.031-.005h.005a.019.019,0,0,0,.016-.005c.01-.005.021-.005.031-.01h.005c.005,0,.005-.005.01-.005l.031-.016c.005,0,.005,0,.01-.005l2.919-1.462v4.182H282.947V65.293Zm-10.249,14.26h4.454a.444.444,0,0,0,0-.888h-4.454a.444.444,0,0,0,0,.888Zm0-3.566H292.3a.444.444,0,0,0,0-.888h-6.239a.444.444,0,0,0,0,.888Zm0-3.561h7.133a.444.444,0,1,0,0-.888h-7.127a.443.443,0,0,0-.444.444.439.439,0,0,0,.439.444Zm0-3.566h7.133a.444.444,0,1,0,0-.888h-7.127a.443.443,0,0,0-.444.444.439.439,0,0,0,.439.444Z" transform="translate(-282.947 -65.293)" fill="#0073cf"/></g></g></svg>