<svg xmlns="http://www.w3.org/2000/svg" width="37.781" height="35.38" viewBox="0 0 37.781 35.38"><g transform="translate(0 0)"><path d="M36.249,11.757H1.532A1.532,1.532,0,0,0,0,13.289V38.508A1.532,1.532,0,0,0,1.532,40.04H13.751l-1.307,4.444H10.86a.728.728,0,0,0-.728.728v1.2a.728.728,0,0,0,.728.728H26.921a.728.728,0,0,0,.728-.728v-1.2a.728.728,0,0,0-.728-.728H25.337L24.03,40.04H36.249a1.532,1.532,0,0,0,1.532-1.532V13.289A1.532,1.532,0,0,0,36.249,11.757ZM34.718,34.423H3.063V14.82H34.718Z" transform="translate(0 -11.757)" fill="#0073cf"/><path d="M148.762,112.022a.555.555,0,0,0,1.055-.051l.319-1.172,2.733,2.733a.555.555,0,0,0,.785,0l.687-.687a.555.555,0,0,0,0-.785l-2.733-2.733,1.171-.32a.555.555,0,0,0,.051-1.055l-5.4-2.049a.555.555,0,0,0-.716.716Z" transform="translate(-131.7 -96.259)" fill="#0073cf"/></g></svg>