<svg xmlns="http://www.w3.org/2000/svg" width="55" height="55" viewBox="0 0 55 55"><g transform="translate(-245 -1026)"><path d="M27.5,0h0A27.5,27.5,0,0,1,55,27.5v0A27.5,27.5,0,0,1,27.5,55H9.821A9.821,9.821,0,0,1,0,45.179V27.5A27.5,27.5,0,0,1,27.5,0Z" transform="translate(245 1026)" fill="#0073cf" opacity="0.1"/><path d="M92.637,33.362,86.4,36.278v-2.5A4.881,4.881,0,1,0,79.6,28.071,4.881,4.881,0,1,0,72.845,33.8V44.528H86.4v-2.3l6.233,2.916Zm-15.59.391A4.892,4.892,0,0,0,79.6,30.676a4.892,4.892,0,0,0,2.549,3.076ZM84.3,25.771a3.6,3.6,0,1,1-3.6,3.6A3.6,3.6,0,0,1,84.3,25.771Zm-13.012,3.6a3.6,3.6,0,1,1,3.6,3.6A3.6,3.6,0,0,1,71.288,29.374Zm3.6,1.894a1.894,1.894,0,1,1,1.894-1.894A1.894,1.894,0,0,1,74.891,31.267Zm7.515-1.894A1.894,1.894,0,1,1,84.3,31.267,1.894,1.894,0,0,1,82.406,29.374Z" transform="translate(190.989 1018.506)" fill="#0073cf"/></g></svg>