<svg xmlns="http://www.w3.org/2000/svg" width="55" height="55" viewBox="0 0 55 55"><g transform="translate(-855 -740)"><path d="M27.5,0h0A27.5,27.5,0,0,1,55,27.5v0A27.5,27.5,0,0,1,27.5,55H9.821A9.821,9.821,0,0,1,0,45.179V27.5A27.5,27.5,0,0,1,27.5,0Z" transform="translate(855 740)" fill="#0073cf" opacity="0.1"/><g transform="translate(761.555 754.982)"><path d="M219.094,370.6a.829.829,0,1,1-.827.83.829.829,0,0,1,.827-.83Z" transform="translate(-103.02 -354.077)" fill="#0073cf"/><path d="M201.672,416.875V413.98h-.166l-.246-2.563a1.174,1.174,0,0,1,1.023-1.214h1.125a1.174,1.174,0,0,1,1.023,1.214l-.249,2.563h-.163v2.895h-2.347Z" transform="translate(-86.77 -391.915)" fill="#0073cf"/><path d="M423.123,306.846a1.177,1.177,0,1,1-1.178,1.178,1.177,1.177,0,0,1,1.178-1.178Z" transform="translate(-297.626 -293.162)" fill="#0073cf"/><path d="M398.6,366.369h-.525V363.22a1.442,1.442,0,0,1,1.438-1.438h1.565a1.442,1.442,0,0,1,1.438,1.438v3.149h-.525l.548,4.241h-4.485l.548-4.241Z" transform="translate(-274.801 -345.651)" fill="#0073cf"/><path d="M277,327.8V323h-.282l-.4-4.131a1.836,1.836,0,0,1,1.571-1.9h1.891a1.832,1.832,0,0,1,1.568,1.9l-.4,4.131h-.285v4.8Z" transform="translate(-158.485 -302.837)" fill="#0073cf"/><path d="M301.662,248.87a1.45,1.45,0,1,1-1.452,1.452A1.451,1.451,0,0,1,301.662,248.87Z" transform="translate(-181.313 -237.768)" fill="#0073cf"/><path d="M121.114,10.665a2.619,2.619,0,0,0-5.22,0c-.415-3.451-5.085-2.989-5.444,0a10.67,10.67,0,0,1,21.34,0c-.362-3.03-5.054-3.362-5.458,0A2.615,2.615,0,0,0,121.114,10.665Z" transform="translate(-0.005)" fill="#0073cf"/><g transform="translate(110.446 24.99)"><path d="M.024-.225H.017a0,0,0,0,1,0,0,.006.006,0,0,1,0,0H.024v0h0a0,0,0,0,0,0,0,.005.005,0,0,0,0,0h0Z" transform="translate(-0.016 0.234)" fill="#0073cf"/></g><g transform="translate(110.456 24.993)"><path d="M.037-.17h0s0,0,0,0v0h0V-.172H.037Z" transform="translate(-0.031 0.172)" fill="#0073cf"/></g><g transform="translate(110.463 24.993)"><path d="M.023-.168H.016a.005.005,0,0,1,0,0,0,0,0,0,1,0,0H.022Zm0,0h0Z" transform="translate(-0.016 0.172)" fill="#0073cf"/></g><g transform="translate(110.472 24.993)"><path d="M.02-.168h0Zm0,0v0H.016a0,0,0,0,1,0,0h0v0H.022A0,0,0,0,1,.023-.168Z" transform="translate(-0.016 0.172)" fill="#0073cf"/></g><g transform="translate(110.481 24.991)"><path d="M0-.219v0h0v0H0v0H0s0,0,0,0v0H0v0H0v0Z" transform="translate(0 0.219)" fill="#0073cf"/></g><g transform="translate(110.488 24.993)"><path d="M.023-.168H.016a.005.005,0,0,1,0,0,0,0,0,0,1,0,0H.022Zm0,0h0Z" transform="translate(-0.016 0.172)" fill="#0073cf"/></g><g transform="translate(110.497 24.99)"><path d="M.021-.23v0h0v.01H.016a.005.005,0,0,1,0,0,0,0,0,0,1,0,0h0Zm0,0h0v0h0a0,0,0,0,0,0,0h0Z" transform="translate(-0.016 0.234)" fill="#0073cf"/></g><g transform="translate(110.513 24.99)"><path d="M.035-.225h0v0h0v0h0Zm0,0h0a0,0,0,0,1,0,0,.007.007,0,0,1,0,0H.031v-.01h0Z" transform="translate(-0.031 0.234)" fill="#0073cf"/></g><g transform="translate(110.521 24.993)"><path d="M0-.172H0L0-.166V-.172h0l0,.008H0Z" transform="translate(0 0.172)" fill="#0073cf"/></g><g transform="translate(110.536 24.993)"><path d="M.02-.168h0Zm0,0v0H.016a0,0,0,0,1,0,0h0v0H.022A0,0,0,0,1,.023-.168Z" transform="translate(-0.016 0.172)" fill="#0073cf"/></g><g transform="translate(110.544 24.993)"><path d="M0-.172H0L0-.166V-.172h0l0,.008H0Z" transform="translate(0 0.172)" fill="#0073cf"/></g><g transform="translate(110.555 24.993)"><path d="M.031-.167v0h0v0h0v0h0a0,0,0,0,0,0,0v0h0v.008H.031Z" transform="translate(-0.031 0.172)" fill="#0073cf"/></g><g transform="translate(110.445 25.004)"><path d="M.006-.234h0v0H0v.006H0V-.23H0v0H0a0,0,0,0,1,0,0H0Z" transform="translate(0 0.234)" fill="#0073cf"/></g><g transform="translate(110.452 25.007)"><path d="M.037-.17h0s0,0,0,0v0h0V-.172H.037Z" transform="translate(-0.031 0.172)" fill="#0073cf"/></g><g transform="translate(110.458 25.007)"><path d="M.02-.17h0a0,0,0,0,0,0,0h0v0Zm0,0h0a0,0,0,0,1,0,0,0,0,0,0,1,0,0H.016a.005.005,0,0,1,0,0,0,0,0,0,1,0,0Z" transform="translate(-0.016 0.172)" fill="#0073cf"/></g><g transform="translate(110.469 25.007)"><path d="M.038-.17h0v.007h0v0h0v0h0v0h0v0h0V-.172H.038Z" transform="translate(-0.031 0.172)" fill="#0073cf"/></g><g transform="translate(110.486 25.005)"><path d="M0-.219v0h0v0H0v0H0s0,0,0,0v0H0v0H0v0Z" transform="translate(0 0.219)" fill="#0073cf"/></g><g transform="translate(110.494 25.004)"><path d="M.039-.229v0h0v0h0s0,0,0,0v0h0v-.01h0v0h0Z" transform="translate(-0.031 0.234)" fill="#0073cf"/></g><g transform="translate(110.504 25.007)"><path d="M.023-.168H.016a.005.005,0,0,1,0,0,0,0,0,0,1,0,0H.022Zm0,0h0Z" transform="translate(-0.016 0.172)" fill="#0073cf"/></g><g transform="translate(110.518 25.004)"><path d="M.031-.234h0l0,.007V-.234h0v.01h0l0-.007v.007h0Z" transform="translate(-0.031 0.234)" fill="#0073cf"/></g><g transform="translate(110.529 25.007)"><path d="M.02-.17h0a0,0,0,0,0,0,0h0v0Zm0,0h0a0,0,0,0,1,0,0,0,0,0,0,1,0,0H.016a.005.005,0,0,1,0,0,0,0,0,0,1,0,0Z" transform="translate(-0.016 0.172)" fill="#0073cf"/></g><g transform="translate(110.54 25.007)"><path d="M.031-.167v0h0v0h0v0h0a0,0,0,0,0,0,0v0h0v.008H.031Z" transform="translate(-0.031 0.172)" fill="#0073cf"/></g><g transform="translate(110.549 25.007)"><path d="M.039-.169v0h0v0h0s0,0,0,0v0h0V-.172H.038Z" transform="translate(-0.031 0.172)" fill="#0073cf"/></g><g transform="translate(110.564 25.004)"><path d="M.031-.234H.038v0a0,0,0,0,1,0,0h0v0h0Zm0,0v0h0Z" transform="translate(-0.031 0.234)" fill="#0073cf"/></g><g transform="translate(110.574 25.007)"><path d="M.037-.17h0s0,0,0,0v0h0V-.172H.037Z" transform="translate(-0.031 0.172)" fill="#0073cf"/></g><g transform="translate(110.58 25.007)"><path d="M.02-.17h0a0,0,0,0,0,0,0h0v0Zm0,0h0a0,0,0,0,1,0,0,0,0,0,0,1,0,0H.016a.005.005,0,0,1,0,0,0,0,0,0,1,0,0Z" transform="translate(-0.016 0.172)" fill="#0073cf"/></g><g transform="translate(110.588 25.004)"><path d="M-.014-.232h0v.01h0Zm0,0h0v0h0Z" transform="translate(0.016 0.234)" fill="#0073cf"/></g><g transform="translate(110.595 25.007)"><path d="M.023-.168H.016a.005.005,0,0,1,0,0,0,0,0,0,1,0,0H.022Zm0,0h0Z" transform="translate(-0.016 0.172)" fill="#0073cf"/></g><g transform="translate(110.604 25.007)"><path d="M.023-.172v0h0a0,0,0,0,0,0,0h0v0H.016a.005.005,0,0,1,0,0,0,0,0,0,1,0,0H.023Z" transform="translate(-0.016 0.172)" fill="#0073cf"/></g><g transform="translate(110.612 25.005)"><path d="M0-.219v0h0v0H0v0H0s0,0,0,0v0H0v0H0v0Z" transform="translate(0 0.219)" fill="#0073cf"/></g></g></g></svg>