<svg xmlns="http://www.w3.org/2000/svg" width="124.563" height="5.765" viewBox="0 0 124.563 5.765"><g transform="translate(-649.134 -1963.22)"><path d="M-13053.391-13278.016c-.16,0-.313-.006-.46-.017a7.239,7.239,0,0,1-4.524-2.111,4.982,4.982,0,0,0-2.912-1.62,2.862,2.862,0,0,0-.3-.016,4.688,4.688,0,0,0-3.216,1.636,5.29,5.29,0,0,1-3.807,1.669,5.939,5.939,0,0,1-1.7-.26,7.778,7.778,0,0,1-2.53-1.332,8.1,8.1,0,0,0-4.087-1.617,2.81,2.81,0,0,0-.562.054,2.414,2.414,0,0,0-1.643,1.279l-1.732-1a4.363,4.363,0,0,1,2.986-2.241,4.783,4.783,0,0,1,.941-.091,10.256,10.256,0,0,1,5.325,2.037l.042.034a5.743,5.743,0,0,0,1.887.977,3.868,3.868,0,0,0,1.063.158,3.313,3.313,0,0,0,2.4-1.081,6.565,6.565,0,0,1,4.615-2.223,5.214,5.214,0,0,1,.522.026,6.9,6.9,0,0,1,4.122,2.2,4.745,4.745,0,0,0,7,0l1.414,1.414A6.722,6.722,0,0,1-13053.391-13278.016Z" transform="translate(13730 15247)" fill="#0073cf"/><path d="M-13053.391-13278.016c-.16,0-.313-.006-.46-.017a7.239,7.239,0,0,1-4.524-2.111,4.982,4.982,0,0,0-2.912-1.62,2.862,2.862,0,0,0-.3-.016,4.688,4.688,0,0,0-3.216,1.636,5.29,5.29,0,0,1-3.807,1.669,5.939,5.939,0,0,1-1.7-.26,7.778,7.778,0,0,1-2.53-1.332,8.1,8.1,0,0,0-4.087-1.617,2.81,2.81,0,0,0-.562.054,2.414,2.414,0,0,0-1.643,1.279l-1.732-1a4.363,4.363,0,0,1,2.986-2.241,4.783,4.783,0,0,1,.941-.091,10.256,10.256,0,0,1,5.325,2.037l.042.034a5.743,5.743,0,0,0,1.887.977,3.868,3.868,0,0,0,1.063.158,3.313,3.313,0,0,0,2.4-1.081,6.565,6.565,0,0,1,4.615-2.223,5.214,5.214,0,0,1,.522.026,6.9,6.9,0,0,1,4.122,2.2,4.745,4.745,0,0,0,7,0l1.414,1.414A6.722,6.722,0,0,1-13053.391-13278.016Z" transform="translate(13791.495 15247)" fill="#0073cf"/><path d="M-13053.391-13278.016c-.16,0-.313-.006-.46-.017a7.239,7.239,0,0,1-4.524-2.111,4.982,4.982,0,0,0-2.912-1.62,2.862,2.862,0,0,0-.3-.016,4.688,4.688,0,0,0-3.216,1.636,5.29,5.29,0,0,1-3.807,1.669,5.939,5.939,0,0,1-1.7-.26,7.778,7.778,0,0,1-2.53-1.332,8.1,8.1,0,0,0-4.087-1.617,2.81,2.81,0,0,0-.562.054,2.414,2.414,0,0,0-1.643,1.279l-1.732-1a4.363,4.363,0,0,1,2.986-2.241,4.783,4.783,0,0,1,.941-.091,10.256,10.256,0,0,1,5.325,2.037l.042.034a5.743,5.743,0,0,0,1.887.977,3.868,3.868,0,0,0,1.063.158,3.313,3.313,0,0,0,2.4-1.081,6.565,6.565,0,0,1,4.615-2.223,5.214,5.214,0,0,1,.522.026,6.9,6.9,0,0,1,4.122,2.2,4.745,4.745,0,0,0,7,0l1.414,1.414A6.722,6.722,0,0,1-13053.391-13278.016Z" transform="translate(13760.747 15247)" fill="#0073cf"/><path d="M-13053.391-13278.016c-.16,0-.313-.006-.46-.017a7.239,7.239,0,0,1-4.524-2.111,4.982,4.982,0,0,0-2.912-1.62,2.862,2.862,0,0,0-.3-.016,4.688,4.688,0,0,0-3.216,1.636,5.29,5.29,0,0,1-3.807,1.669,5.939,5.939,0,0,1-1.7-.26,7.778,7.778,0,0,1-2.53-1.332,8.1,8.1,0,0,0-4.087-1.617,2.81,2.81,0,0,0-.562.054,2.414,2.414,0,0,0-1.643,1.279l-1.732-1a4.363,4.363,0,0,1,2.986-2.241,4.783,4.783,0,0,1,.941-.091,10.256,10.256,0,0,1,5.325,2.037l.042.034a5.743,5.743,0,0,0,1.887.977,3.868,3.868,0,0,0,1.063.158,3.313,3.313,0,0,0,2.4-1.081,6.565,6.565,0,0,1,4.615-2.223,5.214,5.214,0,0,1,.522.026,6.9,6.9,0,0,1,4.122,2.2,4.745,4.745,0,0,0,7,0l1.414,1.414A6.722,6.722,0,0,1-13053.391-13278.016Z" transform="translate(13822.242 15247)" fill="#0073cf"/></g></svg>