<svg xmlns="http://www.w3.org/2000/svg" width="55" height="55" viewBox="0 0 55 55"><g transform="translate(-245 -1312)"><path d="M27.5,0h0A27.5,27.5,0,0,1,55,27.5v0A27.5,27.5,0,0,1,27.5,55H9.821A9.821,9.821,0,0,1,0,45.179V27.5A27.5,27.5,0,0,1,27.5,0Z" transform="translate(245 1312)" fill="#0073cf" opacity="0.1"/><path d="M109.369,39.634l-4.417-4.417a.744.744,0,0,0-.52-.216h-2.945a.736.736,0,0,0-.736.736,2.209,2.209,0,0,1-4.417,0A.736.736,0,0,0,95.6,35H92.652a.745.745,0,0,0-.521.216l-4.417,4.417a.736.736,0,0,0-.068.961l2.209,2.945a.736.736,0,0,0,1.031.147l1.688-1.265c.046.959.079,1.927.079,2.884a62.549,62.549,0,0,1-.727,9.458.736.736,0,0,0,.727.848h11.779a.736.736,0,0,0,.727-.848,62.08,62.08,0,0,1-.727-9.458c0-.992.032-1.949.077-2.886l1.69,1.266a.736.736,0,0,0,1.031-.147l2.209-2.945a.736.736,0,0,0-.069-.962Z" transform="translate(173.851 1294.193)" fill="#0073cf"/></g></svg>