<svg xmlns="http://www.w3.org/2000/svg" width="35.5" height="35.5" viewBox="0 0 35.5 35.5"><g transform="translate(-1.5 -1.5)"><path d="M28.5,15.875a1.5,1.5,0,0,1-1.5-1.5V4.5H10.5v9.875a1.5,1.5,0,0,1-3,0V3A1.5,1.5,0,0,1,9,1.5H28.5A1.5,1.5,0,0,1,30,3V14.375A1.5,1.5,0,0,1,28.5,15.875Z" transform="translate(0.5)" fill="#0073cf"/><path d="M32.25,29.625H29a1.5,1.5,0,0,1,0-3h3.25A1.752,1.752,0,0,0,34,24.875V16.75A1.752,1.752,0,0,0,32.25,15h-26A1.752,1.752,0,0,0,4.5,16.75v8.125a1.752,1.752,0,0,0,1.75,1.75H9.5a1.5,1.5,0,1,1,0,3H6.25a4.755,4.755,0,0,1-4.75-4.75V16.75A4.755,4.755,0,0,1,6.25,12h26A4.755,4.755,0,0,1,37,16.75v8.125A4.755,4.755,0,0,1,32.25,29.625Z" transform="translate(0 0.875)" fill="#0073cf"/><path d="M9,19.5H28.5A1.5,1.5,0,0,1,30,21V34a1.5,1.5,0,0,1-1.5,1.5H9A1.5,1.5,0,0,1,7.5,34V21A1.5,1.5,0,0,1,9,19.5Zm18,3H10.5v10H27Z" transform="translate(0.5 1.5)" fill="#0073cf"/></g></svg>