<svg xmlns="http://www.w3.org/2000/svg" width="55" height="55" viewBox="0 0 55 55"><g transform="translate(-850 -522)"><path d="M27.5,0h0A27.5,27.5,0,0,1,55,27.5v0A27.5,27.5,0,0,1,27.5,55H9.821A9.821,9.821,0,0,1,0,45.179V27.5A27.5,27.5,0,0,1,27.5,0Z" transform="translate(850 522)" fill="#0073cf" opacity="0.05"/><g transform="translate(595 -3)"><circle cx="10" cy="10" r="10" transform="translate(273 543)" fill="#fff"/><path d="M10,0A10,10,0,1,0,20,10,10,10,0,0,0,10,0m0-2A12,12,0,0,1,22,10,12,12,0,0,1,10,22,12,12,0,0,1-2,10,12,12,0,0,1,10-2Z" transform="translate(273 543)" fill="#0073cf"/><path d="M7,8a1,1,0,0,1-.707-.293l-7-7a1,1,0,0,1,0-1.414,1,1,0,0,1,1.414,0l7,7A1,1,0,0,1,7,8Z" transform="translate(279.5 549.5)" fill="#0073cf"/><path d="M0,8a1,1,0,0,1-.707-.293,1,1,0,0,1,0-1.414l7-7a1,1,0,0,1,1.414,0,1,1,0,0,1,0,1.414l-7,7A1,1,0,0,1,0,8Z" transform="translate(279.5 549.5)" fill="#0073cf"/></g></g></svg>