<svg xmlns="http://www.w3.org/2000/svg" width="55" height="55" viewBox="0 0 55 55"><g transform="translate(-215 -1740)"><path d="M27.5,0h0A27.5,27.5,0,0,1,55,27.5v0A27.5,27.5,0,0,1,27.5,55H9.821A9.821,9.821,0,0,1,0,45.179V27.5A27.5,27.5,0,0,1,27.5,0Z" transform="translate(215 1740)" fill="#0073cf" opacity="0.05"/><path d="M3.378,5h16.9A2.881,2.881,0,0,1,23.16,7.878V19.147a2.881,2.881,0,0,1-2.878,2.878H3.378A2.881,2.881,0,0,1,.5,19.147V7.878A2.881,2.881,0,0,1,3.378,5Zm16.9,15.026a.879.879,0,0,0,.878-.878V7.878A.879.879,0,0,0,20.282,7H3.378a.879.879,0,0,0-.878.878V19.147a.879.879,0,0,0,.878.878Z" transform="translate(225.499 1761.713) rotate(-30)" fill="#0073cf"/><path d="M22.16,16H1.5a1,1,0,1,1,0-2H22.16a1,1,0,1,1,0,2Z" transform="translate(223.816 1758.799) rotate(-30)" fill="#0073cf"/></g></svg>