<svg version="1.2" baseProfile="tiny-ps" xmlns="http://www.w3.org/2000/svg" viewBox="0 0 28 28" width="30" height="30">
	<title>signature-svgrepo-com-svg</title>
	<style>
		tspan { white-space:pre }
		.shp0 { fill: #0073cf } 
	</style>
	<g id="Layer">
		<path id="Layer" fill-rule="evenodd" class="shp0" d="M22.23 18.63L22.23 27.91L1.35 27.91L1.35 0L22.23 0L22.23 10.85L20.92 12.17L20.92 1.32L2.67 1.32L2.67 26.6L20.92 26.6L20.92 19.95L21.21 19.65L21.42 19.44L21.42 19.44L22.23 18.63ZM13.94 23.61C13.03 23.49 12.53 23.27 12.32 22.89C12.11 22.51 12.29 22.11 12.42 21.82C12.46 21.74 12.52 21.61 12.53 21.55C12.51 21.56 12.41 21.51 12.15 21.49C11.96 21.48 11.73 21.49 11.65 21.62C11.43 22 12 23.18 12.45 23.86L11.9 24.22C11.68 23.88 10.57 22.15 11.08 21.28C11.22 21.05 11.53 20.78 12.2 20.84C12.53 20.86 12.93 20.93 13.11 21.23C13.28 21.53 13.14 21.84 13.02 22.1C12.94 22.28 12.84 22.48 12.9 22.57C12.93 22.64 13.12 22.85 14.11 22.97C14.2 22.98 14.29 22.99 14.37 23C14.38 22.98 14.39 22.97 14.41 22.95C14.23 22.66 13.99 22.14 14.17 21.75C14.25 21.57 14.43 21.36 14.87 21.32C15.43 21.27 16 21.71 16.26 22.13C16.43 22.43 16.48 22.74 16.37 23.01C16.38 23.01 16.39 23.02 16.39 23.03L16.64 23.19L16.28 23.74L16.03 23.57C15.98 23.54 15.94 23.52 15.9 23.49C15.8 23.54 15.69 23.57 15.57 23.61L14.68 24.3C14.49 24.46 14.24 24.65 14.02 24.65C13.93 24.65 13.84 24.62 13.77 24.54C13.64 24.42 13.51 24.29 13.94 23.61ZM15 25.66L14.46 25.29C14.5 25.23 15.51 23.84 17.23 23.99L17.17 24.65C15.82 24.53 15 25.65 15 25.66ZM17.6 24.7L17.68 24.03L18.33 24.11L18.25 24.78L17.6 24.7ZM15.08 22.77L15.22 22.98L15.2 23C15.23 23 15.25 23 15.28 22.99L15.72 22.65L15.76 22.67C15.75 22.59 15.71 22.51 15.69 22.47C15.53 22.2 15.19 21.98 14.95 21.98C14.94 21.98 14.93 21.98 14.92 21.98C14.8 21.99 14.77 22.02 14.77 22.02C14.72 22.1 14.86 22.48 15.08 22.77ZM16.19 3.3L16.19 4.62L7.4 4.62L7.4 3.3L16.19 3.3ZM18.45 7.45L4.71 7.45L4.71 6.71L18.45 6.71L18.45 7.45ZM18.45 9.67L4.71 9.67L4.71 8.93L18.45 8.93L18.45 9.67ZM18.45 11.95L4.71 11.95L4.71 11.21L18.45 11.21L18.45 11.95ZM18.45 14.27L4.71 14.27L4.71 13.53L18.45 13.53L18.45 14.27ZM26.56 12.46L25.39 13.63L22.91 11.13L24.07 9.97L26.56 12.46ZM22.64 11.4L25.13 13.9L19.47 19.55L16.98 17.06L22.64 11.4ZM18.76 20.26L15.57 20.96L16.27 17.77L16.55 17.5L19.04 19.99L18.76 20.26Z" />
	</g>
	<g id="Layer">
	</g>
	<g id="Layer">
	</g>
	<g id="Layer">
	</g>
	<g id="Layer">
	</g>
	<g id="Layer">
	</g>
	<g id="Layer">
	</g>
	<g id="Layer">
	</g>
	<g id="Layer">
	</g>
	<g id="Layer">
	</g>
	<g id="Layer">
	</g>
	<g id="Layer">
	</g>
	<g id="Layer">
	</g>
	<g id="Layer">
	</g>
	<g id="Layer">
	</g>
	<g id="Layer">
	</g>
</svg>