<svg xmlns="http://www.w3.org/2000/svg" width="55" height="55" viewBox="0 0 55 55"><g transform="translate(-850 -1075)"><path d="M27.5,0h0A27.5,27.5,0,0,1,55,27.5v0A27.5,27.5,0,0,1,27.5,55H9.821A9.821,9.821,0,0,1,0,45.179V27.5A27.5,27.5,0,0,1,27.5,0Z" transform="translate(850 1075)" fill="#0073cf" opacity="0.05"/><path d="M12.2,17.053h2.75V19.8H12.2Zm5.5-9.625A1.375,1.375,0,0,1,19.071,8.8v4.125l-4.125,2.75H12.2V14.3l4.125-2.75V10.178H9.446V7.428H17.7ZM13.571,3.991a8.937,8.937,0,1,0,6.32,2.618,8.879,8.879,0,0,0-6.32-2.618Zm0-2.062a11,11,0,1,1-11,11,11,11,0,0,1,11-11Z" transform="translate(863.929 1089.572)" fill="#0073cf"/></g></svg>