<svg xmlns="http://www.w3.org/2000/svg" width="21.42" height="21.487" viewBox="0 0 21.42 21.487"><path d="M10.752,16.227l.022-9.311a.638.638,0,0,0-.888-.588L1.41,9.952a.638.638,0,0,0-.387.585L1,19.847a.638.638,0,0,0,.888.588l8.476-3.623A.638.638,0,0,0,10.752,16.227Z" transform="translate(10.646 1)" fill="#0073cf"/><path d="M12.642,7.354l7.822,3.388-.02,8.617-7.822-3.388.02-8.617m-.317-1.123a.638.638,0,0,0-.639.637l-.022,9.311a.638.638,0,0,0,.384.587l8.459,3.664a.636.636,0,0,0,.891-.584l.022-9.311a.638.638,0,0,0-.384-.587L12.578,6.284a.636.636,0,0,0-.252-.053Z" transform="translate(-11.665 1.005)" fill="#0073cf" opacity="0.4"/><path d="M11.166.986,19.28,4.609,11.149,8.194,3.035,4.571,11.166.986m0-.986a.638.638,0,0,0-.259.054L1.992,3.986a.638.638,0,0,0,0,1.166l8.9,3.974a.638.638,0,0,0,.517,0l8.918-3.931a.638.638,0,0,0,0-1.166L11.427.055A.637.637,0,0,0,11.168,0Z" transform="translate(-0.284)" fill="#0073cf" opacity="0.4"/></svg>