<svg xmlns="http://www.w3.org/2000/svg" width="361" height="361" viewBox="0 0 361 361"><g transform="translate(-1024 -480)"><circle cx="180.5" cy="180.5" r="180.5" transform="translate(1024 480)" fill="#e5f1fa"/><g transform="translate(859 496)"><g transform="translate(264 66)"><path d="M-4501.965-12948.668l76.084,50.857,76.049-51.039-76.049-52.127Z" transform="translate(4501.983 13030.061)" fill="#0063b2"/><path d="M7.148,0H114.364a7.148,7.148,0,0,1,7.148,7.148V126.277a7.148,7.148,0,0,1-7.148,7.148H7.148A7.148,7.148,0,0,1,0,126.277V7.148A7.148,7.148,0,0,1,7.148,0Z" transform="translate(15.726)" fill="#fff"/><g transform="translate(30.207 13.623)"><rect width="93.754" height="2.907" transform="translate(0 17.443)" fill="#bebebe"/><rect width="93.754" height="2.907" transform="translate(0 53.054)" fill="#bebebe"/><rect width="91.574" height="2.907" transform="translate(0 29.071)" fill="#bebebe"/><rect width="89.393" height="2.907" transform="translate(0 63.229)" fill="#bebebe"/><rect width="85.759" height="3.634" transform="translate(0 40.699)" fill="#bebebe"/><rect width="59.595" height="2.907" transform="translate(0 77.038)" fill="#bebebe"/><rect width="36.339" height="9.448" transform="translate(0 0)" fill="#bebebe"/></g><path d="M0,0,76.028,51.764,152.485,0V102.451H0Z" transform="translate(0.001 80.531)" fill="#0073cf"/><path d="M-4502-12950.232l152.6,0-76.5-50.746Z" transform="translate(4502.002 13133.221)" fill="#0063b2"/></g><g transform="translate(357.816 193.749)"><circle cx="34.147" cy="34.147" r="34.147" transform="translate(0)" fill="#00cf07"/><path d="M36,4.576,4.906,18.128a.713.713,0,0,0,.025,1.3l8.411,4.752a1.356,1.356,0,0,0,1.55-.152l16.585-14.3c.11-.093.373-.271.474-.169s-.059.364-.152.474L17.451,26.192a1.352,1.352,0,0,0-.136,1.618l5.5,8.818a.715.715,0,0,0,1.288-.017l12.858-31.1A.713.713,0,0,0,36,4.576Z" transform="translate(11.465 17.454)" fill="#fff"/></g></g></g></svg>