<svg xmlns="http://www.w3.org/2000/svg" width="55" height="55" viewBox="0 0 55 55"><g transform="translate(-1035 -657)"><circle cx="27.5" cy="27.5" r="27.5" transform="translate(1035 657)" fill="#0073cf" opacity="0.1"/><path d="M5.267,8.742a12.624,12.624,0,0,0,5.492,5.492L12.592,12.4a.829.829,0,0,1,.85-.2,9.506,9.506,0,0,0,2.975.475.836.836,0,0,1,.833.833v2.908a.836.836,0,0,1-.833.833A14.165,14.165,0,0,1,2.25,3.083a.836.836,0,0,1,.833-.833H6a.836.836,0,0,1,.833.833,9.467,9.467,0,0,0,.475,2.975.836.836,0,0,1-.208.85Z" transform="translate(1052.75 674.75)" fill="#0073cf"/></g></svg>