<svg xmlns="http://www.w3.org/2000/svg" width="55" height="55" viewBox="0 0 55 55"><g transform="translate(-245 -740)"><path d="M27.5,0h0A27.5,27.5,0,0,1,55,27.5v0A27.5,27.5,0,0,1,27.5,55H9.821A9.821,9.821,0,0,1,0,45.179V27.5A27.5,27.5,0,0,1,27.5,0Z" transform="translate(245 740)" fill="#0073cf" opacity="0.1"/><path d="M187.568,113.948l.165.62H182.2l-.041.744c-.041.661-1.157,1.157-1.157,1.157s-1.116-.5-1.157-1.157l-.124-.785h-5.578l.165-.62,5.289-1.2-.7-10.207h-9.958l.33-1.859,9.339-3.678c-.041-2.892.95-5.5,2.4-5.5,1.4,0,2.4,2.479,2.4,5.248v.248l9.3,3.719.331,1.859H182.982l-.7,10.207Z" transform="translate(217.592 566.013) rotate(45)" fill="#0073cf"/></g></svg>