<svg xmlns="http://www.w3.org/2000/svg" width="265.011" height="41.599" viewBox="0 0 265.011 41.599"><g transform="translate(-433.621 -1112.499)"><path d="M-13123.152-13171.531l-.012-1c.992-.012,2-.036,2.986-.073l.037,1C-13121.139-13171.568-13122.152-13171.543-13123.152-13171.531Zm-4.016-.021c-1-.021-2.012-.056-3.012-.1l.046-1c.992.046,2,.08,2.987.1Zm11.039-.271-.071-1c.988-.07,1.989-.154,2.975-.249l.1,1C-13114.123-13171.978-13115.133-13171.893-13116.129-13171.822Zm-18.059-.084c-.994-.079-2-.172-3-.275l.1-.994c.988.1,1.989.194,2.976.272Zm25.05-.622-.13-.991c.983-.129,1.979-.272,2.957-.427l.156.988C-13107.143-13172.8-13108.146-13172.658-13109.138-13172.528Zm-32.036-.133c-.988-.135-1.99-.284-2.979-.443l.158-.987c.981.158,1.976.306,2.955.439Zm38.977-.989-.189-.981c.973-.187,1.956-.391,2.924-.6l.214.977C-13100.225-13174.043-13101.217-13173.839-13102.2-13173.65Zm-45.913-.154c-.978-.188-1.97-.392-2.948-.6l.212-.978c.972.211,1.955.412,2.926.6Zm52.77-1.38-.247-.969c.961-.246,1.932-.507,2.886-.777l.272.962C-13093.392-13175.7-13094.371-13175.433-13095.341-13175.185Zm-59.627-.134c-.967-.24-1.947-.5-2.915-.759l.263-.965c.96.261,1.934.515,2.894.753Zm66.382-1.81-.3-.952c.944-.3,1.9-.622,2.833-.949l.33.944C-13086.671-13177.755-13087.633-13177.434-13088.586-13177.128Zm-73.153-.06c-.953-.289-1.919-.593-2.871-.9l.311-.95c.945.309,1.905.61,2.851.9Zm-6.668-2.2c-.937-.336-1.888-.687-2.824-1.043l.355-.935c.931.354,1.874.7,2.8,1.035Zm86.45-.085-.361-.932c.925-.36,1.856-.736,2.77-1.119l.387.923C-13080.083-13180.218-13081.023-13179.838-13081.957-13179.476Zm-93.01-2.436c-.921-.379-1.854-.772-2.773-1.172l.4-.917c.913.4,1.841.788,2.755,1.163Zm99.48-.311-.419-.908c.9-.417,1.811-.851,2.7-1.288l.444.9C-13073.659-13183.08-13074.574-13182.643-13075.486-13182.222Zm-105.91-2.5c-.9-.418-1.817-.853-2.719-1.291l.438-.9c.9.436,1.8.867,2.7,1.283Zm112.2-.648-.478-.879c.881-.479,1.757-.971,2.6-1.464l.5.864C-13067.426-13186.352-13068.311-13185.854-13069.2-13185.371Zm-118.5-2.437c-.884-.455-1.78-.927-2.663-1.4l.474-.881c.878.472,1.769.94,2.647,1.394Zm124.56-1.14-.542-.841c.874-.562,1.706-1.122,2.473-1.663l.576.817C-13061.412-13190.086-13062.256-13189.519-13063.141-13188.948Zm-130.733-2.2c-.433-.245-.871-.5-1.3-.746s-.878-.5-1.313-.752l.493-.869c.438.248.882.5,1.32.756s.866.5,1.3.741Zm-119.048-.853-.758-.652a29.877,29.877,0,0,1,2.15-2.167l.681.732C-13312.215-13192.817-13312.915-13192.008-13312.922-13192Zm112.944-2.58c-.878-.476-1.767-.948-2.642-1.405l.463-.886c.879.459,1.772.934,2.655,1.412Zm-107.867-2.086-.624-.782c.774-.617,1.585-1.232,2.41-1.827l.585.812C-13306.286-13197.879-13307.084-13197.274-13307.845-13196.666Zm101.669-1.128c-.9-.443-1.8-.883-2.692-1.306l.429-.9c.9.425,1.808.867,2.708,1.313Zm-96.007-2.895-.534-.845c.843-.534,1.714-1.059,2.588-1.56l.5.867C-13300.493-13201.731-13301.352-13201.214-13302.183-13200.688Zm89.692-.077c-.911-.407-1.834-.808-2.74-1.192l.39-.921c.913.387,1.841.791,2.758,1.2Zm-6.435-2.7c-.929-.365-1.868-.726-2.792-1.068l.348-.937c.931.346,1.876.707,2.812,1.076Zm-77.209-.632-.448-.895c.895-.447,1.812-.883,2.729-1.3l.41.912C-13294.348-13204.973-13295.253-13204.543-13296.134-13204.1Zm70.663-1.771c-.946-.321-1.9-.634-2.842-.931l.3-.953c.947.3,1.911.613,2.863.938Zm-64.308-1.038-.359-.933c.933-.36,1.889-.708,2.84-1.032l.322.947C-13287.914-13207.608-13288.857-13207.266-13289.778-13206.91Zm57.649-1.031c-.961-.271-1.933-.532-2.887-.776l.248-.969c.962.246,1.941.51,2.91.782Zm-51.054-1.168-.271-.963c.961-.271,1.944-.529,2.921-.766l.235.973C-13281.263-13209.633-13282.232-13209.378-13283.183-13209.109Zm44.293-.532c-.974-.215-1.957-.419-2.924-.605l.189-.981c.976.188,1.968.394,2.949.61Zm-37.525-1.058-.185-.983c.98-.185,1.981-.354,2.976-.5l.148.989C-13274.457-13211.05-13275.446-13210.883-13276.415-13210.7Zm30.679-.232c-.984-.153-1.979-.294-2.955-.418l.126-.992c.985.125,1.989.267,2.982.422Zm-23.793-.762-.1-1c.993-.1,2-.185,3.009-.251l.065,1C-13267.549-13211.876-13268.549-13211.792-13269.529-13211.693Zm16.88-.079c-.991-.086-1.993-.157-2.977-.212l.056-1c.993.055,2.006.127,3.008.214Zm-9.937-.339-.021-1c1-.02,2.015-.024,3.021-.01l-.014,1C-13260.593-13212.136-13261.6-13212.13-13262.586-13212.111Z" transform="translate(13747.301 14325.629)" fill="#bebebe"/><path d="M7,0l7,9H0Z" transform="translate(688.732 1121.868) rotate(45)" fill="#bebebe"/></g></svg>