<svg xmlns="http://www.w3.org/2000/svg" width="61" height="61" viewBox="0 0 61 61"><g transform="translate(-214.5 -479.5)"><circle cx="30" cy="30" r="30" transform="translate(215 480)" fill="#fff" stroke="#bebebe" stroke-width="1"/><path d="M12.562.562a12,12,0,1,0,12,12A12,12,0,0,0,12.562.562ZM15.325,17.5l-4.268-3.1a.584.584,0,0,1-.237-.469V5.788a.582.582,0,0,1,.581-.581h2.323a.582.582,0,0,1,.581.581v6.663l3.073,2.235a.58.58,0,0,1,.126.813l-1.365,1.877A.585.585,0,0,1,15.325,17.5Z" transform="translate(232.438 497.438)" fill="#bebebe"/></g></svg>