<svg xmlns="http://www.w3.org/2000/svg" width="60" height="60" viewBox="0 0 60 60"><g transform="translate(-215 -870)"><g transform="translate(0 70)"><circle cx="30" cy="30" r="30" transform="translate(215 800)" fill="#0073cf"/><path d="M15.981,3.375H8.673A1.923,1.923,0,0,0,6.75,5.3V21.452a1.923,1.923,0,0,0,1.923,1.923H20.212a1.923,1.923,0,0,0,1.923-1.923V9.529ZM15.212,10.3V4.913L20.6,10.3Z" transform="translate(230.357 816.625)" fill="#fff"/></g><g transform="translate(214.71 870)"><circle cx="11" cy="11" r="11" transform="translate(0.29)" fill="#00cf07"/><path d="M8.062,13.963l-2.2-2.2-.749.743,2.947,2.947,6.327-6.327-.743-.743Z" transform="translate(1.385 -0.885)" fill="#fff" stroke="#fff" stroke-linecap="round" stroke-width="0.5"/></g></g></svg>