<svg xmlns="http://www.w3.org/2000/svg" width="370" height="227.849" viewBox="0 0 370 227.849"><g transform="translate(-215 -4106)"><path d="M10,0H360a10,10,0,0,1,10,10V195a10,10,0,0,1-10,10H23.88L0,227.849V10A10,10,0,0,1,10,0Z" transform="translate(215 4106)" fill="#fff"/><path d="M10,1a9.01,9.01,0,0,0-9,9V225.508L23.479,204H360a9.01,9.01,0,0,0,9-9V10a9.01,9.01,0,0,0-9-9H10m0-1H360a10,10,0,0,1,10,10V195a10,10,0,0,1-10,10H23.88L0,227.849V10A10,10,0,0,1,10,0Z" transform="translate(215 4106)" fill="#f3e3fd"/></g></svg>