<svg xmlns="http://www.w3.org/2000/svg" width="214.398" height="213" viewBox="0 0 214.398 213"><g transform="translate(-1043.301 -403)"><circle cx="106.5" cy="106.5" r="106.5" transform="translate(1044 403)" fill="#e5f1fa"/><g transform="translate(6251.121 14820)"><g transform="translate(-5207.121 -14400.16)"><path d="M-112.592,0H-243.957A10.748,10.748,0,0,0-254.7,10.748V37.034a10.747,10.747,0,0,0,10.748,10.748h131.365a10.747,10.747,0,0,0,10.748-10.748V10.748A10.748,10.748,0,0,0-112.592,0" transform="translate(254.705)" fill="#fff"/></g><g transform="translate(-5207.121 -14400.16)"><path d="M-112.592,0H-243.957A10.748,10.748,0,0,0-254.7,10.748V37.034a10.747,10.747,0,0,0,10.748,10.748h131.365a10.747,10.747,0,0,0,10.748-10.748V10.748A10.748,10.748,0,0,0-112.592,0Z" transform="translate(254.705)" fill="none" stroke="#bbabf8" stroke-miterlimit="10" stroke-width="1.397"/></g><g transform="translate(-5165.075 -14384.397)"><path d="M-6.716,0l2.061,6.179,6.512-.051L-3.383,10l2.061,6.178-5.3-3.787-5.24,3.869,1.965-6.21-5.3-3.788,6.512-.05Z" transform="translate(15.193)" fill="#00cf07"/></g><g transform="translate(-5144.332 -14384.397)"><path d="M-6.717,0l2.061,6.179,6.512-.051L-3.383,10l2.06,6.178-5.3-3.787-5.24,3.869,1.965-6.21-5.3-3.788,6.513-.05Z" transform="translate(15.195)" fill="#00cf07"/></g><g transform="translate(-5123.588 -14384.397)"><path d="M-6.717,0l2.061,6.179,6.512-.051L-3.383,10l2.061,6.178-5.3-3.787-5.239,3.869,1.965-6.21-5.3-3.788,6.513-.05Z" transform="translate(15.195)" fill="#00cf07"/></g><g transform="translate(-5102.844 -14384.397)"><path d="M-6.717,0l2.061,6.179,6.512-.051L-3.384,10l2.061,6.178-5.3-3.787-5.239,3.869,1.965-6.21-5.3-3.788,6.512-.05Z" transform="translate(15.195)" fill="#00cf07"/></g><g transform="translate(-5082.101 -14384.397)"><path d="M-6.717,0l2.061,6.179,6.512-.051L-3.383,10l2.061,6.178-5.3-3.787-5.24,3.869,1.965-6.21-5.3-3.788,6.513-.05Z" transform="translate(15.195)" fill="#e5f1fa"/></g><g transform="translate(-5192.974 -14387.972)"><path d="M-15.188-7.594a9.585,9.585,0,0,1-9.585,9.586,9.585,9.585,0,0,1-9.585-9.586,9.585,9.585,0,0,1,9.585-9.585,9.585,9.585,0,0,1,9.585,9.585" transform="translate(34.357 17.179)" fill="#e5f1fa"/></g><path d="M665.182-496.085h-8.466v2.262h8.466Z" transform="translate(-5851.652 -13870.743)" fill="#0073cf"/><path d="M675.634-493.823h12.693v-2.262H675.634Z" transform="translate(-5860.015 -13870.743)" fill="#0073cf"/></g><g transform="translate(6837.716 14793.438)"><g transform="translate(-5732.504 -14321.816)"><path d="M-33.774,0H-164.218A10.672,10.672,0,0,0-174.89,10.672v26.1a10.673,10.673,0,0,0,10.672,10.673H-33.774A10.673,10.673,0,0,0-23.1,36.774v-26.1A10.672,10.672,0,0,0-33.774,0" transform="translate(174.89 0)" fill="#fff"/></g><g transform="translate(-5732.504 -14321.816)"><path d="M-33.774,0H-164.218A10.672,10.672,0,0,0-174.89,10.672v26.1a10.673,10.673,0,0,0,10.672,10.673H-33.774A10.673,10.673,0,0,0-23.1,36.774v-26.1A10.672,10.672,0,0,0-33.774,0Z" transform="translate(174.89 0)" fill="none" stroke="#bbabf8" stroke-miterlimit="10" stroke-width="1.397"/></g><g transform="translate(-5690.753 -14306.164)"><path d="M-2.015,0,.03,6.134,6.5,6.085,1.3,9.927l2.046,6.136L-1.92,12.3l-5.2,3.841,1.952-6.166-5.262-3.761,6.468-.049Z" transform="translate(10.433)" fill="#00cf07"/></g><g transform="translate(-5670.154 -14306.164)"><path d="M-2.015,0,.032,6.134,6.5,6.085,1.3,9.927l2.046,6.136L-1.92,12.3l-5.2,3.841,1.952-6.166-5.261-3.761,6.467-.049Z" transform="translate(10.432)" fill="#00cf07"/></g><g transform="translate(-5649.557 -14306.164)"><path d="M-2.015,0,.03,6.134,6.5,6.085,1.3,9.927l2.046,6.136L-1.92,12.3l-5.2,3.841,1.95-6.166-5.261-3.761,6.468-.049Z" transform="translate(10.433)" fill="#00cf07"/></g><g transform="translate(-5628.958 -14306.164)"><path d="M-2.015,0,.032,6.134,6.5,6.085,1.3,9.927l2.046,6.136L-1.92,12.3l-5.2,3.841,1.952-6.166-5.261-3.761,6.467-.049Z" transform="translate(10.432)" fill="#00cf07"/></g><g transform="translate(-5608.36 -14306.164)"><path d="M-2.015,0,.03,6.134,6.5,6.085,1.3,9.927l2.046,6.136L-1.92,12.3l-5.2,3.841,1.95-6.166-5.261-3.761,6.468-.049Z" transform="translate(10.433)" fill="#e5f1fa"/></g><g transform="translate(-5718.456 -14309.715)"><path d="M-4.556-2.278a9.518,9.518,0,0,1-9.518,9.519,9.518,9.518,0,0,1-9.517-9.519A9.518,9.518,0,0,1-14.074-11.8,9.517,9.517,0,0,1-4.556-2.278" transform="translate(23.591 11.796)" fill="#e5f1fa"/></g><path d="M132.9-436.462h-8.407v2.246H132.9Z" transform="translate(-5844.895 -13852.257)" fill="#bbabf8"/><path d="M137.48-434.217h12.6v-2.246h-12.6Z" transform="translate(-5847.403 -13852.256)" fill="#bbabf8"/></g><g transform="translate(6459.142 14787)"><g transform="translate(-5415.142 -14283.452)"><path d="M-232.044,0H-378.26a11.963,11.963,0,0,0-11.963,11.963V74.171A11.963,11.963,0,0,0-378.26,86.134h56.247l10.074,10.074,10.074-10.074h69.82a11.963,11.963,0,0,0,11.963-11.963V11.963A11.963,11.963,0,0,0-232.044,0" transform="translate(390.223)" fill="#fff"/></g><g transform="translate(-5415.142 -14283.452)"><path d="M-232.044,0H-378.26a11.963,11.963,0,0,0-11.963,11.963V74.171A11.963,11.963,0,0,0-378.26,86.134h56.247l10.074,10.074,10.074-10.074h69.82a11.963,11.963,0,0,0,11.963-11.963V11.963A11.963,11.963,0,0,0-232.044,0Z" transform="translate(390.223)" fill="none" stroke="#bbabf8" stroke-miterlimit="10" stroke-width="1.397"/></g><g transform="translate(-5400.288 -14270.908)"><path d="M-36.659-18.329A12.494,12.494,0,0,1-49.153-5.835,12.494,12.494,0,0,1-61.648-18.329,12.494,12.494,0,0,1-49.153-30.824,12.494,12.494,0,0,1-36.659-18.329" transform="translate(61.648 30.824)" fill="#e5f1fa"/></g><g transform="translate(-5371.187 -14269.764)"><path d="M-13.842,0l2.293,6.877L-4.3,6.821l-5.832,4.306L-7.838,18l-5.9-4.216-5.832,4.306,2.187-6.912-5.9-4.215,7.249-.056Z" transform="translate(23.277)" fill="#00cf07"/></g><g transform="translate(-5348.099 -14269.764)"><path d="M-13.842,0l2.293,6.877L-4.3,6.821l-5.832,4.306L-7.838,18l-5.9-4.216-5.832,4.306,2.187-6.912-5.9-4.215,7.249-.056Z" transform="translate(23.277)" fill="#00cf07"/></g><g transform="translate(-5325.01 -14269.764)"><path d="M-13.842,0l2.293,6.877L-4.3,6.821l-5.832,4.306L-7.838,18l-5.9-4.216-5.832,4.306,2.187-6.912-5.9-4.215,7.249-.056Z" transform="translate(23.277)" fill="#00cf07"/></g><g transform="translate(-5301.921 -14269.764)"><path d="M-13.842,0l2.293,6.877L-4.3,6.821l-5.831,4.306L-7.838,18l-5.9-4.216-5.832,4.306,2.187-6.912-5.9-4.215,7.249-.056Z" transform="translate(23.277)" fill="#e5f1fa"/></g><g transform="translate(-5278.832 -14269.764)"><path d="M-13.842,0l2.293,6.877L-4.3,6.821l-5.832,4.306L-7.838,18l-5.9-4.216-5.832,4.306,2.187-6.912-5.9-4.215,7.249-.056Z" transform="translate(23.277)" fill="#e5f1fa"/></g><path d="M472.905-332.768H461.87v2.949h11.036Z" transform="translate(-5862.819 -13907.575)" fill="#0073cf"/><path d="M495.816-329.82h16.546v-2.949H495.816Z" transform="translate(-5883.005 -13907.575)" fill="#0073cf"/><path d="M485.671-311.157h-23.8v2.949h23.8Z" transform="translate(-5862.818 -13920.426)" fill="#e5f1fa"/><path d="M600.209-311.157H544.517v2.949h55.692Z" transform="translate(-5911.965 -13920.426)" fill="#e5f1fa"/><path d="M705.836-308.208H748.7v-2.949H705.836Z" transform="translate(-6007.893 -13920.426)" fill="#e5f1fa"/><path d="M515.081-288H461.868v2.949h53.213Z" transform="translate(-5862.818 -13934.195)" fill="#e5f1fa"/><path d="M745.973-285.052h26.594V-288H745.973Z" transform="translate(-6031.76 -13934.195)" fill="#e5f1fa"/><path d="M662.148-288H615.529v2.949h46.618Z" transform="translate(-5954.192 -13934.195)" fill="#e5f1fa"/></g></g></svg>