<svg xmlns="http://www.w3.org/2000/svg" width="60" height="60" viewBox="0 0 60 60"><g transform="translate(-0.29)"><circle cx="30" cy="30" r="30" transform="translate(0.29)" fill="#0073cf"/><g transform="translate(38)"><circle cx="11" cy="11" r="11" transform="translate(0.29)" fill="#00cf07"/><path d="M8.062,13.963l-2.2-2.2-.749.743,2.947,2.947,6.327-6.327-.743-.743Z" transform="translate(1.385 -0.885)" fill="#fff" stroke="#fff" stroke-linecap="round" stroke-width="0.5"/></g><path d="M23.874,4.548,4.751,12.883a.438.438,0,0,0,.016.8L9.939,16.6a.834.834,0,0,0,.953-.094l10.2-8.793c.068-.057.229-.167.292-.1s-.036.224-.094.292l-8.825,9.939a.831.831,0,0,0-.083.995l3.381,5.423a.44.44,0,0,0,.792-.01L24.463,5.126A.438.438,0,0,0,23.874,4.548Z" transform="translate(15.497 15.497)" fill="#fff"/></g></svg>