<svg xmlns="http://www.w3.org/2000/svg" width="60" height="60" viewBox="0 0 60 60"><circle cx="30" cy="30" r="30" fill="#0073cf"/><g transform="translate(11 20)"><path d="M21,3H5A2,2,0,0,0,3.01,5L3,23l4-4H21a2.006,2.006,0,0,0,2-2V5A2.006,2.006,0,0,0,21,3ZM19,15H7V13H19Zm0-3H7V10H19Zm0-3H7V7H19Z" transform="translate(8.5 -3)" fill="#fff"/><g transform="translate(0 3.5)"><path d="M6,1H0A1,1,0,0,1-1,0,1,1,0,0,1,0-1H6A1,1,0,0,1,7,0,1,1,0,0,1,6,1Z" transform="translate(6 9)" fill="#fff"/><path d="M6,1H0A1,1,0,0,1-1,0,1,1,0,0,1,0-1H6A1,1,0,0,1,7,0,1,1,0,0,1,6,1Z" transform="translate(6 1)" fill="#fff"/><path d="M10.5,1H0A1,1,0,0,1-1,0,1,1,0,0,1,0-1H10.5a1,1,0,0,1,1,1A1,1,0,0,1,10.5,1Z" transform="translate(1 5)" fill="#fff"/></g></g><g transform="translate(38)"><circle cx="11" cy="11" r="11" fill="#00cf07"/><path d="M8.062,13.963l-2.2-2.2-.749.743,2.947,2.947,6.327-6.327-.743-.743Z" transform="translate(1.385 -0.885)" fill="#fff" stroke="#fff" stroke-linecap="round" stroke-width="0.5"/></g></svg>