<svg xmlns="http://www.w3.org/2000/svg" width="60" height="60" viewBox="0 0 60 60"><g transform="translate(-0.258)"><circle cx="30" cy="30" r="30" transform="translate(0.258)" fill="#0073cf"/><path d="M8.285,3.856H19.714V6.713H8.285V3.856ZM24,8.142H4A1.433,1.433,0,0,0,2.571,9.57v7.143A1.433,1.433,0,0,0,4,18.142H8.285v5.714H19.714V18.142H24a1.433,1.433,0,0,0,1.429-1.429V9.57A1.433,1.433,0,0,0,24,8.142ZM5.428,12.427A1.429,1.429,0,1,1,6.856,11a1.429,1.429,0,0,1-1.429,1.429Zm12.857,10H9.714V15.285h8.571Z" transform="translate(16.43 16.144)" fill="#fff"/><g transform="translate(38)"><circle cx="11" cy="11" r="11" transform="translate(0.258)" fill="#00cf07"/><path d="M8.062,13.963l-2.2-2.2-.749.743,2.947,2.947,6.327-6.327-.743-.743Z" transform="translate(1.385 -0.885)" fill="#fff" stroke="#fff" stroke-linecap="round" stroke-width="0.5"/></g></g></svg>